<svg width="42" height="42" viewBox="0 0 42 42" fill="none" xmlns="http://www.w3.org/2000/svg">
<path d="M30.114 0C37.233 0 42 4.998 42 12.432V29.5911C42 37.0041 37.233 42 30.114 42H11.907C4.788 42 0 37.0041 0 29.5911V12.432C0 4.998 4.788 0 11.907 0H30.114Z" fill="black"/>
<mask id="path-2-inside-1_0_1" fill="white">
<path d="M27.797 9.875C25.8595 9.875 24.0189 10.65 22.6626 12.0062L21.5001 13.1688L20.4345 12.1031C17.6251 9.19688 12.9751 9.19687 10.1657 12.0062L10.0688 12.1031C7.1626 15.0094 7.1626 19.6594 10.0688 22.5656L21.5001 34.0938L32.9313 22.5656C35.8376 19.6594 35.8376 15.0094 32.9313 12.1031C31.5751 10.65 29.7345 9.875 27.797 9.875Z"/>
</mask>
<path d="M22.6626 12.0062L110.344 99.6875L110.344 99.6875L22.6626 12.0062ZM21.5001 13.1688L-66.1811 100.85L21.5001 188.531L109.181 100.85L21.5001 13.1688ZM20.4345 12.1031L-68.7201 98.2859L-67.9898 99.0414L-67.2467 99.7844L20.4345 12.1031ZM10.0688 22.5656L98.1193 -64.7449L97.9351 -64.9306L97.7501 -65.1156L10.0688 22.5656ZM21.5001 34.0938L-66.5503 121.404L21.5001 210.201L109.551 121.404L21.5001 34.0938ZM32.9313 22.5656L-54.7499 -65.1156L-54.9349 -64.9306L-55.1191 -64.7449L32.9313 22.5656ZM32.9313 12.1031L-57.7195 96.7106L-56.2612 98.2731L-54.7499 99.7844L32.9313 12.1031ZM27.797 -114.125C-7.40083 -114.125 -40.6733 -100.02 -65.0186 -75.675L110.344 99.6875C88.711 121.32 59.1198 133.875 27.797 133.875V-114.125ZM-65.0186 -75.675L-66.1811 -74.5125L109.181 100.85L110.344 99.6875L-65.0186 -75.675ZM109.181 -74.5125L108.116 -75.5781L-67.2467 99.7844L-66.1811 100.85L109.181 -74.5125ZM109.589 -74.0796C58.2866 -127.151 -26.0303 -127.16 -77.5155 -75.675L97.847 99.6875C51.9805 145.554 -23.0364 145.545 -68.7201 98.2859L109.589 -74.0796ZM-77.5155 -75.675L-77.6124 -75.5781L97.7501 99.7844L97.847 99.6875L-77.5155 -75.675ZM-77.6124 -75.5781C-128.944 -24.2469 -128.944 58.9156 -77.6124 110.247L97.7501 -65.1156C143.269 -19.5969 143.269 54.2656 97.7501 99.7844L-77.6124 -75.5781ZM-77.9816 109.876L-66.5503 121.404L109.551 -53.2168L98.1193 -64.7449L-77.9816 109.876ZM109.551 121.404L120.982 109.876L-55.1191 -64.7449L-66.5503 -53.2167L109.551 121.404ZM120.613 110.247C171.944 58.9156 171.944 -24.2469 120.613 -75.5781L-54.7499 99.7844C-100.269 54.2656 -100.269 -19.5969 -54.7499 -65.1156L120.613 110.247ZM123.582 -72.5043C98.3618 -99.5262 63.4957 -114.125 27.797 -114.125V133.875C-4.02678 133.875 -35.2116 120.826 -57.7195 96.7106L123.582 -72.5043Z" fill="white" mask="url(#path-2-inside-1_0_1)"/>
</svg>
