<svg width="42" height="42" viewBox="0 0 42 42" fill="none" xmlns="http://www.w3.org/2000/svg">
<path d="M30.114 0C37.233 0 42 4.998 42 12.432V29.5911C42 37.0041 37.233 42 30.114 42H11.907C4.788 42 0 37.0041 0 29.5911V12.432C0 4.998 4.788 0 11.907 0H30.114Z" fill="#F15B5B"/>
<path d="M10.3053 13.4106C10.8103 13.4106 11.1917 13.135 11.6416 13.0775C11.6416 12.7217 12.4968 12.3477 12.4238 12.1266C13.4383 10.564 14.6614 13.0654 15.591 13.0654C15.591 13.0654 17.2521 17.4353 17.8763 17.7366C18.4276 18.0031 20.2108 21.2389 21.7259 22.1005C21.8004 22.1429 21.8794 22.1111 21.93 22.1807C22.1311 22.1807 22.2339 22.479 22.2339 22.6547C24.5982 22.6547 24.5178 24.3142 24.6354 24.3142C24.6354 24.2279 24.628 24.1461 24.6384 24.0613C25.7126 24.0613 24.9706 24.6352 25.1107 25.0047L25.1196 25.0062C25.1405 24.9774 25.1464 24.9471 25.1807 24.935C25.2492 25.1546 26.4828 24.4308 26.4828 26.0313C26.6973 26.0313 26.7911 26.2024 26.955 26.266C27.2917 25.7512 30.5975 28.7735 28.7934 30.9584C27.9785 31.9457 28.2675 34.6258 29.9063 32.2212C29.9063 32.2212 31.8206 29.1914 31.8206 30.3043C32.7056 29.8531 28.4031 25.0471 31.7834 25.0471C32.0426 25.0471 32.0054 25.2273 32.0054 25.3938C33.3253 25.3938 34.8046 28.345 34.9879 26.6869C35.1011 25.6603 34.395 25.577 33.9316 24.6337C33.8929 24.664 33.8899 24.6988 33.8557 24.7336H33.8393C33.5801 22.4821 28.415 23.651 29.6724 21.0239C29.7379 20.8861 29.6768 20.6499 29.5189 20.6363C29.5189 20.6363 26.0641 19.696 25.6664 19.2296C23.3349 16.4844 25.9211 18.421 21.3937 13.1169C20.9706 12.6217 20.9855 10.5927 21.5427 10.9304C21.9345 10.5322 21.562 10.3913 21.3267 10.3747C21.3267 10.1839 21.3505 9.84473 21.2879 9.65243C21.2075 9.70088 21.2164 9.82656 21.2164 9.90378C21.1389 9.7993 21.1464 9.7993 21.0391 9.74631C21.0779 9.65394 21.127 9.65394 20.978 9.65394C20.9766 9.61457 20.9989 9.59034 20.9989 9.55249H20.9617C20.9691 9.51615 20.987 9.48587 20.9929 9.44498C21.0034 9.44196 21.0972 9.51161 21.1464 9.51615C21.1479 9.53886 21.1553 9.55098 21.1643 9.57066L21.1732 9.56763C21.3416 9.14366 21.9092 8.68789 21.8719 8.76512C21.9062 8.75149 21.9553 8.67578 21.9777 8.67578C22.0179 8.95893 21.7646 8.74543 21.6991 8.94985C21.9941 8.84991 23.1963 8.74392 23.1963 8.42897C23.1338 8.42897 23.0742 8.45471 23.0116 8.45471C23.0116 8.37597 23.022 8.35326 23.1054 8.35326C23.1069 8.31541 23.101 8.29724 23.0667 8.27452C23.0801 8.24121 23.092 8.22153 23.1233 8.20336C23.1978 8.2397 23.2902 8.29724 23.3304 8.13522C23.5107 8.19579 23.6239 8.28361 23.8265 8.28361C23.8384 8.36689 23.7714 8.45925 23.6865 8.45925L23.6835 8.46834C23.828 8.65307 24.0053 8.32903 24.0053 8.24424C24.1885 8.21396 24.4284 8.4638 24.5133 8.67124C24.4597 8.69849 24.3747 8.68032 24.3181 8.68032L24.3151 8.69395C24.3151 8.69395 23.6388 6.42874 24.482 5.89272C24.5759 5.83216 24.5803 5.83973 24.5982 5.71405C23.3676 5.40516 21.5367 5.56263 21.5367 4C21.5367 4 18.1073 4.08479 17.7288 4.23924C17.5516 4.78889 17.9046 5.26888 17.2834 5.16743C17.2834 5.16743 16.7128 6.02597 16.4879 6.02597C16.4879 6.02597 15.1262 5.17046 15.0756 5.14926C14.6882 7.5462 13.5113 7.204 13.1835 5.24011C12.7888 5.24011 12.6577 5.67317 12.2748 5.65348C12.1914 6.42268 10.8297 7.2146 9.90157 6.51505C9.87476 6.92691 10.1623 7.58103 10.1623 8.21547C9.97308 8.26241 9.98649 8.48651 9.98649 8.64853C8.24792 8.64853 9.01814 11.3377 10.6658 12.2644C10.9832 12.4431 10.3053 13.1941 10.3053 13.4091V13.4106ZM13.8495 26.5673C13.8152 26.6521 13.8271 26.7308 13.8182 26.8187C13.7497 26.8187 13.5351 28.0133 13.5575 28.0149C13.556 28.1027 13.5649 28.2087 13.4562 28.192C13.2253 28.7871 13.3847 28.5327 13.1061 28.5327V28.5812C12.8603 28.5812 12.6308 28.3132 12.3612 28.2359C12.3537 28.2798 12.4044 28.3116 12.3925 28.3571C12.2346 28.3571 12.1824 27.9876 11.9828 27.9876C11.9828 28.0436 12.1645 28.2117 12.0141 28.2117C12.0141 28.2541 11.9887 28.56 11.9887 28.9794C11.8994 28.9794 11.6595 29.1566 11.6059 29.2307C11.2379 29.0142 11.077 29.1672 10.8684 29.1369C10.9102 29.0763 10.9817 28.9597 10.9519 28.8885C10.9221 28.8946 10.9191 28.9249 10.8893 28.9203C10.8893 28.8522 10.8833 28.6402 10.8759 28.6326C10.9087 28.4676 10.1757 26.8459 10.8595 26.3235C11.0427 26.534 11.0845 26.6491 11.0845 26.3462C10.9608 26.3462 11.0949 25.7057 11.0681 25.5907C10.8923 25.5907 11.0442 25.8617 10.8729 25.8208C10.8729 25.8905 10.9295 25.9374 10.8386 25.9738C10.7791 25.789 10.7746 25.7587 10.7895 25.5816L10.7984 25.5831C10.7984 25.521 10.7046 25.5195 10.709 25.4559C10.8029 25.4559 10.8103 25.3666 10.8774 25.4741C10.9072 25.4135 10.9191 25.3923 10.9891 25.3847C10.9891 25.2818 10.8312 24.8623 11.01 24.8366C11.0487 24.6822 10.9534 24.611 10.8997 24.5368C10.8699 24.5489 10.864 24.5792 10.8327 24.5868C10.7805 24.3748 10.8372 23.8812 10.8148 23.654C10.3008 23.654 10.5452 23.7403 10.6077 23.2195C10.2427 23.2195 10.5869 22.8197 10.5869 22.4684H10.7224C10.7612 22.529 10.7284 22.5653 10.7061 22.6274C11.2826 22.7425 13.1091 21.7916 13.1091 21.7916C13.1359 21.7901 13.1672 21.7462 13.1746 21.7204C13.1865 21.7159 13.194 21.7098 13.2059 21.7038C13.2446 21.781 13.2119 21.9415 13.2714 21.996C13.2878 21.9642 13.2878 21.9309 13.3206 21.9233C13.3355 21.9688 13.3727 22.0127 13.4189 22.0127C13.4338 21.9142 13.5947 22.046 13.6409 22.0702L13.6439 22.0793C13.3936 22.2807 13.8882 22.152 13.8882 22.4336C13.702 22.4245 13.7214 22.5245 13.9329 22.5245C13.9523 22.8227 13.9463 22.42 13.8927 22.847C13.7616 22.8712 14.0387 22.8591 14.0387 23.0711C14.1221 23.0771 14.1593 23.1468 14.2368 23.1907C14.1593 23.4314 14.1519 23.3164 14.1519 23.6419C14.1847 23.6419 14.2115 23.6298 14.2443 23.6298C14.2443 23.6873 14.1757 23.9841 14.2726 24.0068C14.2592 24.1764 13.6945 25.6088 13.9985 25.6088C14.0774 25.7693 13.9106 25.8708 13.9106 26.0479C13.9985 26.0479 13.8808 26.4674 13.848 26.5688L13.8495 26.5673ZM26.8075 36.9031C26.52 37.6163 18.6868 34.2215 20.8961 32.3439C21.1479 32.1289 21.343 33.1479 21.86 32.1652C22.0984 32.1652 22.1684 32.3076 22.4499 32.1652C22.4499 32.2455 22.4931 32.5074 22.5244 32.5831C22.8418 32.5089 28.2154 32.2546 28.2154 32.2546C26.7986 32.8451 26.6198 36.255 27.3885 36.255C27.3885 36.255 26.8522 36.7259 26.809 36.9031H26.8075ZM13.5649 21.8461C13.5649 22.0808 13.5649 21.675 13.5649 21.8461V21.8461ZM13.7914 21.8824C13.7869 21.8219 13.7288 22.3352 13.7914 21.8824V21.8824ZM10.9176 21.9854C11.0278 21.9854 10.7642 22.7107 10.8729 21.9854H10.9176ZM14.1981 23.0393C14.2234 23.0029 14.3292 22.9469 14.3709 22.9499C14.3709 23.0393 14.2949 23.015 14.2353 23.059L14.1966 23.0499V23.0378L14.1981 23.0393ZM14.3262 23.0983C14.4022 23.1498 14.283 23.1483 14.2517 23.1528C14.2517 23.1044 14.2696 23.0983 14.3262 23.0983ZM10.2219 28.0769C10.426 28.0769 10.3396 28.3419 10.1653 28.3419C10.1653 28.2904 10.1146 28.0769 10.2219 28.0769ZM10.4483 28.3631C10.4751 28.3631 10.785 28.6069 10.639 28.6069C10.4781 29.308 10.3902 28.3631 10.4483 28.3631ZM24.1572 24.3066C24.1617 24.3006 24.2272 24.3188 24.2377 24.3203C24.2853 24.6246 23.6313 24.3066 24.1572 24.3066ZM24.4299 24.4202C24.4299 24.5065 24.4299 24.2809 24.4299 24.4202V24.4202ZM24.9408 24.9638C24.9706 24.9638 24.9632 25.0789 24.8455 24.985L24.85 24.9759C24.8857 24.9729 24.9051 24.9638 24.9408 24.9638ZM21.5844 8.98316C21.5948 8.98165 21.6082 8.98467 21.6187 8.98619C21.5963 9.32082 21.1538 9.31174 21.5844 8.98316ZM21.3013 9.47678C21.3013 9.15123 21.4548 9.49344 21.3013 9.60549V9.47678ZM23.2544 8.41534C23.2887 8.41534 23.387 8.38203 23.3513 8.45017C23.3095 8.43351 23.25 8.48499 23.2544 8.41534ZM23.457 8.38809C23.4838 8.38809 23.5032 8.40323 23.5151 8.42746C23.4675 8.4638 23.4138 8.4532 23.4183 8.3896C23.4332 8.39112 23.4421 8.3896 23.457 8.3896V8.38809ZM23.5732 8.41989C23.6209 8.42291 23.6641 8.43503 23.6358 8.48802C23.6105 8.47742 23.5628 8.45017 23.5732 8.41989Z" fill="white"/>
</svg>
