<svg width="42" height="42" viewBox="0 0 42 42" fill="none" xmlns="http://www.w3.org/2000/svg">
<path d="M30.114 0C37.233 0 42 4.998 42 12.432V29.5911C42 37.0041 37.233 42 30.114 42H11.907C4.788 42 0 37.0041 0 29.5911V12.432C0 4.998 4.788 0 11.907 0H30.114ZM20.979 17.8101C19.971 17.8101 19.152 18.648 19.152 19.6581V28.9401C19.152 29.9481 19.971 30.7671 20.979 30.7671C22.008 30.7671 22.827 29.9481 22.827 28.9401V19.6581C22.827 18.648 22.008 17.8101 20.979 17.8101ZM21.021 11.1531C19.992 11.1531 19.173 11.9721 19.173 13.0011C19.173 14.007 19.992 14.8281 20.979 14.8281C22.029 14.8281 22.848 14.007 22.848 13.0011C22.848 11.9721 22.029 11.1531 21.021 11.1531Z" fill="black"/>
</svg>
