<svg width="42" height="42" viewBox="0 0 42 42" fill="none" xmlns="http://www.w3.org/2000/svg">
<path d="M30.114 0C37.233 0 42 4.998 42 12.432V29.5911C42 37.0041 37.233 42 30.114 42H11.907C4.788 42 0 37.0041 0 29.5911V12.432C0 4.998 4.788 0 11.907 0H30.114Z" fill="#F15B5B"/>
<path d="M34.7434 21.6006C34.8406 21.6553 34.8601 21.7712 34.864 21.8154L34.8649 21.833L34.7569 28.8051C34.7569 31.5862 32.602 33.8542 29.8886 33.9932L29.6243 34H13.3622C10.6144 34 8.37365 31.8189 8.23629 29.0726L8.22961 28.8051L8.13507 21.833C8.13507 21.833 8.13507 21.6689 8.25663 21.6006C8.36468 21.5322 8.49975 21.6142 8.51326 21.6279C11.2416 23.4598 14.5238 24.6765 17.968 25.1823C18.4542 25.2507 18.9405 24.9362 19.0755 24.4441C19.3541 23.3932 20.2144 22.6786 21.2668 22.5934L21.4797 22.5849H21.5203C22.6683 22.5849 23.6273 23.3231 23.9245 24.4441C24.0595 24.9362 24.5458 25.2507 25.032 25.1823C28.4762 24.6765 31.7584 23.4598 34.4867 21.6279C34.4867 21.6279 34.5138 21.6142 34.5408 21.6006C34.5948 21.5732 34.6758 21.5596 34.7434 21.6006ZM21.4932 24.5398C20.9856 24.5398 20.5574 24.9304 20.4896 25.4272L20.4802 25.5651V27.3286C20.4802 27.9028 20.9395 28.354 21.4932 28.354C22.0133 28.354 22.4311 27.9749 22.4972 27.4694L22.5063 27.3286V25.5651C22.5063 25.0046 22.0605 24.5398 21.4932 24.5398ZM23.2356 7C25.2616 7 26.923 8.5448 27.1796 10.5271H29.8539C32.6903 10.5271 35 12.8648 35 15.7357C35 15.7357 34.919 16.951 34.8919 18.6434C34.8892 18.7774 34.8244 18.9086 34.7177 18.9879C34.068 19.4678 33.4737 19.8642 33.4197 19.8916C31.1776 21.3954 28.5721 22.4535 25.7965 22.9798C25.6155 23.0154 25.4372 22.921 25.3454 22.7597C24.5674 21.4118 23.1141 20.5341 21.4932 20.5341C19.8832 20.5341 18.4164 21.4022 17.6155 22.7515C17.5223 22.9101 17.3467 23.0017 17.167 22.9675C14.4144 22.4398 11.8089 21.3831 9.58029 19.9053L8.28364 19.003C8.17559 18.9346 8.10805 18.8116 8.10805 18.6749C8.06753 17.9777 8 15.7357 8 15.7357C8 12.8648 10.3097 10.5271 13.1461 10.5271H15.8069C16.0635 8.5448 17.7249 7 19.7509 7H23.2356ZM23.2356 9.05062H19.7509C18.8459 9.05062 18.076 9.67948 17.8599 10.5271H25.1266C24.9105 9.67948 24.1406 9.05062 23.2356 9.05062Z" fill="white"/>
</svg>
